<svg width="713" height="88" viewBox="0 0 713 88" fill="none" xmlns="http://www.w3.org/2000/svg">
<path d="M34.9773 33.2383C33.6528 33.2383 32.7178 33.3593 32.2148 33.4803V42.6763C32.7957 42.8376 33.5748 42.8779 34.5523 42.8779C38.133 42.8779 40.3146 41.0629 40.3146 37.8766C40.3146 34.8516 38.2888 33.2383 34.9773 33.2383Z" fill="#3A3A3A"/>
<path fill-rule="evenodd" clip-rule="evenodd" d="M23.9771 11.3008C36.2881 9.88802 48.7121 9.88802 61.023 11.3008C67.7486 12.0781 73.1709 17.5598 73.9607 24.5485C75.4206 37.4722 75.4206 50.5281 73.9607 63.4518C73.1709 70.4405 67.7486 75.9221 61.0265 76.7031C48.7144 78.1163 36.2892 78.1163 23.9771 76.7031C17.2515 75.9221 11.8292 70.4405 11.0394 63.4555C9.5793 50.5305 9.5793 37.4734 11.0394 24.5485C11.8292 17.5598 17.2515 12.0781 23.9771 11.3008ZM32.2115 56.8335H27.4586V30.0118C29.1728 29.6891 31.5492 29.4471 34.7828 29.4471C38.289 29.4471 40.8603 30.2135 42.539 31.6655C44.0974 32.9965 45.1067 35.1341 45.1067 37.6751C45.1067 40.2565 44.3276 42.3941 42.8471 43.8461C40.9382 45.8225 37.9384 46.7501 34.549 46.7501C33.653 46.7501 32.8349 46.7098 32.2115 46.5888V56.8335ZM51.2303 57.2771C48.9282 57.2771 46.8669 56.6721 45.4644 55.8655L46.3994 52.2758C47.4903 52.9615 49.5515 53.6875 51.2692 53.6875C53.373 53.6875 54.308 52.8001 54.308 51.5095C54.308 50.1785 53.5288 49.4928 51.1913 48.6458C47.4903 47.3148 45.9319 45.2175 45.9709 42.9185C45.9709 39.4498 48.7334 36.7475 53.1392 36.7475C55.243 36.7475 57.0705 37.3121 58.1649 37.9171L57.2299 41.4261C56.0029 40.7124 54.6243 40.3244 53.2171 40.2968C51.503 40.2968 50.568 41.1438 50.568 42.3538C50.568 43.6041 51.464 44.2091 53.8794 45.0965C57.3078 46.3871 58.9051 48.2021 58.944 51.1061C58.944 54.6555 56.2524 57.2771 51.2303 57.2771Z" fill="#3A3A3A"/>
<path d="M351.137 38.6833L349.04 45.3787H356.017L353.88 38.6833C353.454 37.345 353.084 35.8747 352.743 34.529C352.665 34.2196 352.587 33.9104 352.508 33.6013H352.428C352.288 34.1403 352.153 34.716 352.01 35.3063C351.738 36.443 351.456 37.6237 351.137 38.6833Z" fill="#3A3A3A"/>
<path fill-rule="evenodd" clip-rule="evenodd" d="M337.823 11.3008C350.569 9.88802 363.431 9.88802 376.177 11.3008C383.14 12.0781 388.753 17.5598 389.571 24.5485C391.083 37.4722 391.083 50.5281 389.571 63.4518C388.753 70.4405 383.14 75.9221 376.18 76.7031C363.434 78.1163 350.57 78.1163 337.823 76.7031C330.86 75.9221 325.247 70.4405 324.429 63.4555C322.917 50.5305 322.917 37.4734 324.429 24.5485C325.247 17.5598 330.86 12.0781 337.823 11.3008ZM371.417 37.1911V56.8335H366.416V37.1911H371.417ZM366.137 31.7058C366.137 30.1731 367.263 29.0035 368.917 29.0035C370.614 29.0035 371.659 30.1731 371.703 31.7058C371.703 33.1981 370.611 34.3678 368.88 34.3678C367.226 34.3678 366.137 33.1981 366.137 31.7058ZM359.321 56.8335L356.861 49.1298H348.233L345.894 56.8335H340.771L349.483 29.6488H355.816L364.649 56.8335H359.321Z" fill="#3A3A3A"/>
<path d="M507.969 33.2383C506.645 33.2383 505.71 33.3593 505.203 33.4803V42.6763C505.787 42.8376 506.567 42.8779 507.541 42.8779C511.125 42.8779 513.306 41.0629 513.306 37.8766C513.306 34.8516 511.281 33.2383 507.969 33.2383Z" fill="#3A3A3A"/>
<path fill-rule="evenodd" clip-rule="evenodd" d="M495.977 11.3008C508.288 9.88802 520.712 9.88802 533.023 11.3008C539.749 12.0781 545.171 17.5598 545.961 24.5485C547.421 37.4722 547.421 50.5281 545.961 63.4518C545.171 70.4405 539.749 75.9221 533.027 76.7031C520.714 78.1163 508.289 78.1163 495.977 76.7031C489.252 75.9221 483.829 70.4405 483.039 63.4555C481.579 50.5305 481.579 37.4734 483.039 24.5485C483.829 17.5598 489.252 12.0781 495.977 11.3008ZM505.203 56.8335H500.45V30.0118C502.164 29.6891 504.541 29.4471 507.774 29.4471C511.281 29.4471 513.852 30.2135 515.527 31.6655C517.085 32.9965 518.098 35.1341 518.098 37.6751C518.098 40.2565 517.319 42.3941 515.839 43.8461C513.926 45.8225 510.93 46.7501 507.541 46.7501C506.645 46.7501 505.827 46.7098 505.203 46.5888V56.8335ZM524.792 56.8335H520V43.5235C520 40.8615 519.965 38.9658 519.844 37.1911H524.013L524.169 40.9421H524.325C525.26 38.1591 527.48 36.7475 529.506 36.7475C529.974 36.7475 530.25 36.7878 530.639 36.8685V41.5471C530.178 41.4418 529.706 41.3877 529.233 41.3858C526.935 41.3858 525.377 42.9185 524.948 45.1368C524.851 45.6417 524.799 46.1547 524.792 46.6695V56.8335Z" fill="#3A3A3A"/>
<path fill-rule="evenodd" clip-rule="evenodd" d="M651.977 11.3008C664.288 9.88802 676.712 9.88802 689.023 11.3008C695.749 12.0781 701.171 17.5598 701.961 24.5485C703.421 37.4722 703.421 50.5281 701.961 63.4518C701.171 70.4405 695.749 75.9221 689.027 76.7031C676.714 78.1163 664.289 78.1163 651.977 76.7031C645.252 75.9221 639.829 70.4405 639.039 63.4555C637.579 50.5305 637.579 37.4734 639.039 24.5485C639.829 17.5598 645.252 12.0781 651.977 11.3008Z" fill="#3A3A3A"/>
<path d="M664.991 28.2856C663.738 28.2856 662.537 28.7823 661.652 29.6664C660.766 30.5505 660.269 31.7496 660.269 32.9999C660.269 34.2502 660.766 35.4493 661.652 36.3334C662.537 37.2175 663.738 37.7142 664.991 37.7142H676.009C677.262 37.7142 678.463 37.2175 679.348 36.3334C680.234 35.4493 680.732 34.2502 680.732 32.9999C680.732 31.7496 680.234 30.5505 679.348 29.6664C678.463 28.7823 677.262 28.2856 676.009 28.2856H664.991ZM676.009 39.2856C674.757 39.2856 673.556 39.7823 672.67 40.6664C671.785 41.5505 671.287 42.7496 671.287 43.9999C671.287 45.2502 671.785 46.4493 672.67 47.3334C673.556 48.2175 674.757 48.7142 676.009 48.7142C677.262 48.7142 678.463 48.2175 679.348 47.3334C680.234 46.4493 680.732 45.2502 680.732 43.9999C680.732 42.7496 680.234 41.5505 679.348 40.6664C678.463 39.7823 677.262 39.2856 676.009 39.2856ZM660.269 43.9999C660.269 42.7496 660.766 41.5505 661.652 40.6664C662.537 39.7823 663.738 39.2856 664.991 39.2856H669.713V48.7142H664.991C663.738 48.7142 662.537 48.2175 661.652 47.3334C660.766 46.4493 660.269 45.2502 660.269 43.9999ZM664.991 50.2856C664.057 50.2856 663.144 50.5621 662.367 51.0801C661.591 51.5982 660.985 52.3344 660.628 53.1959C660.271 54.0573 660.177 55.0052 660.359 55.9196C660.542 56.8341 660.991 57.6741 661.652 58.3334C662.312 58.9927 663.153 59.4417 664.07 59.6236C664.986 59.8055 665.935 59.7122 666.798 59.3554C667.661 58.9985 668.398 58.3943 668.917 57.619C669.436 56.8438 669.713 55.9323 669.713 54.9999V50.2856H664.991Z" fill="#191816"/>
<path d="M207.249 49.7751C207.367 49.3314 207.406 48.8474 207.406 48.3231V45.3788C207.406 44.9754 207.371 44.4914 207.288 44.0881C206.858 42.1521 205.317 40.5791 203.11 40.5791C199.996 40.5791 198.262 43.4024 198.262 47.0728C198.262 50.6624 199.996 53.2841 203.071 53.2841C205.041 53.2841 206.776 51.9128 207.249 49.7751Z" fill="#3A3A3A"/>
<path fill-rule="evenodd" clip-rule="evenodd" d="M180.259 11.3008C192.715 9.88802 205.285 9.88802 217.741 11.3008C224.545 12.0781 230.031 17.5598 230.831 24.5485C232.308 37.4722 232.308 50.5281 230.831 63.4518C230.031 70.4405 224.545 75.9221 217.744 76.7031C205.287 78.1163 192.716 78.1163 180.259 76.7031C173.454 75.9221 167.968 70.4405 167.169 63.4555C165.692 50.5305 165.692 37.4734 167.169 24.5485C167.968 17.5598 173.454 12.0781 180.259 11.3008ZM207.406 39.3288V28.1968H212.258V51.3078C212.258 53.3245 212.337 55.5025 212.416 56.8335H208.08L207.883 53.7278H207.804C206.661 55.9058 204.335 57.2771 201.537 57.2771C196.964 57.2771 193.338 53.2841 193.338 47.2341C193.302 40.6598 197.319 36.7475 201.931 36.7475C204.572 36.7475 206.464 37.8768 207.331 39.3288H207.41H207.406ZM185.939 56.8335V29.6488H190.787V56.8335H185.939Z" fill="#3A3A3A"/>
</svg>
