<svg width="31" height="23" viewBox="0 0 31 23" fill="none" xmlns="http://www.w3.org/2000/svg">
<path d="M11.82 22.39C14.22 22.39 16.35 21.76 18.06 20.68L20.1 22.48L23.13 18.97L21.27 17.35C22.26 15.67 22.83 13.66 22.83 11.47C22.83 5.38 18.45 0.609998 11.82 0.609998C5.19 0.609998 0.81 5.38 0.81 11.47C0.81 17.65 5.19 22.39 11.82 22.39ZM11.82 5.41C15.18 5.41 17.49 8.02 17.49 11.47C17.49 12.28 17.34 13.03 17.13 13.72L15.3 12.13L12.33 15.61L14.07 17.14C13.41 17.44 12.63 17.59 11.82 17.59C8.49 17.59 6.15 15.01 6.15 11.47C6.15 8.02 8.46 5.41 11.82 5.41ZM27.5426 22.39C29.1926 22.39 30.5426 21.04 30.5426 19.42C30.5426 17.77 29.1926 16.42 27.5426 16.42C25.8926 16.42 24.5726 17.77 24.5726 19.42C24.5726 21.04 25.8926 22.39 27.5426 22.39Z" fill="#BE35E3"/>
</svg>
