<svg width="130" height="24" viewBox="0 0 130 24" fill="none" xmlns="http://www.w3.org/2000/svg">
<path d="M13.32 23L20.91 2H15.27L10.53 16.94L5.79 2H0.15L7.74 23H13.32ZM27.5145 7.25H22.5045V23H27.5145V7.25ZM24.9645 6.29C26.5545 6.29 27.7845 5.15 27.7845 3.59C27.7845 2 26.5545 0.859999 24.9645 0.859999C23.3745 0.859999 22.1745 2 22.1745 3.59C22.1745 5.15 23.3745 6.29 24.9645 6.29ZM29.5753 15.17C29.5753 19.91 33.1153 23.39 38.1253 23.39C43.1053 23.39 46.7653 19.85 46.7653 15.11C46.7653 10.34 43.1953 6.86 38.1253 6.86C33.2653 6.86 29.5753 10.4 29.5753 15.17ZM34.5853 15.17C34.5853 12.86 36.0553 11.27 38.1253 11.27C40.1653 11.27 41.7553 12.8 41.7553 15.11C41.7553 17.36 40.1953 18.98 38.1253 18.98C36.0853 18.98 34.5853 17.45 34.5853 15.17ZM48.8423 23H53.8523V1.31H48.8423V23ZM71.3932 16.43C71.4232 16.07 71.4232 15.74 71.4232 15.44C71.4232 10.07 68.6932 6.86 63.6832 6.86C59.0632 6.86 55.9432 10.55 55.9432 15.17C55.9432 19.82 59.1232 23.39 64.3132 23.39C68.3932 23.39 70.5532 20.84 71.0032 19.91L67.7032 17.36C67.4032 17.81 66.2932 19.04 64.4032 19.04C62.5432 19.04 61.1932 17.84 61.0732 16.43H71.3932ZM63.7732 10.91C65.3332 10.91 66.2632 11.99 66.3232 13.25H61.2232C61.3432 12.14 62.1232 10.91 63.7732 10.91ZM78.8524 3.92H73.8424V7.25H72.3124V11.3H73.8424V16.85C73.8424 21.53 76.0024 23.24 79.7224 23.24C80.9824 23.24 81.6424 23.06 81.6424 23.06V18.77C81.3124 18.8 81.0724 18.8 80.8024 18.8C79.7824 18.8 78.8524 18.47 78.8524 17.09V11.3H81.5224V7.25H78.8524V3.92ZM83.1293 18.11C83.1293 21.53 85.8893 23.39 88.9793 23.39C90.5993 23.39 91.7393 22.94 92.5493 22.13L92.8193 23H97.2893V13.25C97.2893 9.65 95.9093 6.86 90.4793 6.86C87.8693 6.86 85.7393 7.7 84.0593 8.81L85.9193 12.17C87.1493 11.57 88.4993 11.18 89.8793 11.18C91.4993 11.18 92.2793 11.93 92.2793 12.89V13.46C91.7093 13.22 90.6293 12.89 89.2493 12.89C85.5293 12.89 83.1293 14.96 83.1293 18.11ZM88.1393 17.93C88.1393 16.91 89.0393 16.25 90.2393 16.25C91.4393 16.25 92.3693 16.85 92.3693 17.93C92.3693 18.98 91.4693 19.55 90.2693 19.55C89.0993 19.55 88.1393 18.98 88.1393 17.93ZM110.375 23.39C112.775 23.39 114.905 22.76 116.615 21.68L118.655 23.48L121.685 19.97L119.825 18.35C120.815 16.67 121.385 14.66 121.385 12.47C121.385 6.38 117.005 1.61 110.375 1.61C103.745 1.61 99.3647 6.38 99.3647 12.47C99.3647 18.65 103.745 23.39 110.375 23.39ZM110.375 6.41C113.735 6.41 116.045 9.02 116.045 12.47C116.045 13.28 115.895 14.03 115.685 14.72L113.855 13.13L110.885 16.61L112.625 18.14C111.965 18.44 111.185 18.59 110.375 18.59C107.045 18.59 104.705 16.01 104.705 12.47C104.705 9.02 107.015 6.41 110.375 6.41ZM126.097 23.39C127.747 23.39 129.097 22.04 129.097 20.42C129.097 18.77 127.747 17.42 126.097 17.42C124.447 17.42 123.127 18.77 123.127 20.42C123.127 22.04 124.447 23.39 126.097 23.39Z" fill="white"/>
</svg>
