<svg width="1146" height="64" viewBox="0 0 1146 64" fill="none" xmlns="http://www.w3.org/2000/svg">
<path d="M0.4055 12.2V57H13.5895C27.9895 57 37.2055 48.616 37.2055 34.6C37.2055 20.584 27.9895 12.2 13.5895 12.2H0.4055ZM13.5895 21.672C20.9495 21.672 25.8135 26.024 25.8135 34.6C25.8135 43.176 20.9495 47.528 13.5895 47.528H11.3495V21.672H13.5895ZM53.8495 12.2H42.9055V57H53.8495V12.2ZM74.9005 11.368C66.0045 11.368 60.1805 16.616 60.1805 24.68C60.1805 39.016 78.7405 38.504 78.7405 44.456C78.7405 46.44 77.3965 47.592 74.7725 47.592C71.7005 47.592 69.2685 45.224 68.0525 42.6L58.9005 47.144C60.0525 50.536 64.0845 57.832 74.1325 57.832C83.9245 57.832 89.8125 51.88 89.8125 43.624C89.8125 29.928 71.1245 30.568 71.1245 24.488C71.1245 22.76 72.5325 21.48 74.6445 21.48C78.0365 21.48 79.3805 23.912 80.2765 25.896L89.3645 21.736C88.2125 18.344 84.5005 11.368 74.9005 11.368ZM120.04 57V47.208H106.6V39.208H117.608V29.48H106.6V21.992H119.528V12.2H95.6555V57H120.04ZM153.982 57H164.862V12.2H154.11V39.976L137.726 12.2H126.59V57H137.342V29.544L153.982 57ZM150.206 9.832C154.686 9.832 157.63 6.184 157.63 0.359997H151.102C151.102 1.704 150.462 2.536 149.246 2.536C147.262 2.536 145.022 0.423996 141.374 0.423996C136.83 0.423996 133.822 4.264 133.822 9.896H140.35C140.35 8.488 141.054 7.72 142.27 7.72C144.254 7.72 146.75 9.832 150.206 9.832ZM193.904 57.832C208.048 57.832 217.392 47.72 217.392 34.536C217.392 21.544 208.048 11.368 193.904 11.368C179.76 11.368 170.416 21.544 170.416 34.536C170.416 47.72 179.76 57.832 193.904 57.832ZM193.904 21.608C201.072 21.608 206 27.176 206 34.536C206 42.088 201.007 47.592 193.904 47.592C186.8 47.592 181.808 42.088 181.808 34.536C181.808 27.176 186.736 21.608 193.904 21.608ZM254.216 57.768C266.056 57.768 272.904 50.216 272.904 39.72V12.2H261.96V39.72C261.96 44.648 259.208 47.656 254.28 47.656C249.416 47.656 246.472 44.648 246.472 39.784V12.2H235.528V39.784C235.528 50.472 242.184 57.768 254.216 57.768ZM290.062 12.2H277.198L291.214 34.408L277.006 57H289.166L297.614 42.6L306.062 57H318.222L304.014 34.408L318.03 12.2H305.166L297.614 25.896L290.062 12.2ZM347.87 9H338.59L319.454 63.912H328.734L347.87 9ZM371.091 57.768C382.931 57.768 389.779 50.216 389.779 39.72V12.2H378.835V39.72C378.835 44.648 376.083 47.656 371.155 47.656C366.291 47.656 363.347 44.648 363.347 39.784V12.2H352.403V39.784C352.403 50.472 359.059 57.768 371.091 57.768ZM408.537 12.2H397.593V57H408.537V12.2ZM473.529 43.624C473.529 39.016 471.673 35.368 467.257 33.512C470.329 31.784 472.121 28.072 472.121 24.232C472.121 16.552 466.681 12.2 457.593 12.2H441.593V57H458.105C466.681 57 473.529 52.712 473.529 43.624ZM457.849 38.44C460.729 38.44 462.265 40.296 462.265 42.984C462.265 45.544 460.665 47.592 457.785 47.592H452.473V38.44H457.849ZM457.017 21.544C459.705 21.544 460.985 23.144 460.985 25.512C460.985 27.944 459.641 29.672 457.145 29.672H452.473V21.544H457.017ZM509.428 25.96C509.428 17.064 504.308 12.2 493.748 12.2H479.156V57H490.1V40.424H493.428L501.428 57H513.524C503.156 37.672 503.22 37.8 503.22 37.8C507.316 35.56 509.428 30.888 509.428 25.96ZM492.852 21.608C496.82 21.608 498.228 23.4 498.228 26.344C498.228 29.416 496.372 31.272 493.364 31.272H490.1V21.608H492.852ZM542.61 46.952L545.81 57H556.818L541.33 12.2H529.81L514.322 57H525.33L528.53 46.952H542.61ZM539.794 37.992H531.346L535.57 23.784L539.794 37.992ZM588.42 57H599.3V12.2H588.548V39.976L572.164 12.2H561.028V57H571.78V29.544L588.42 57ZM607.093 12.2V57H620.277C634.677 57 643.893 48.616 643.893 34.6C643.893 20.584 634.677 12.2 620.277 12.2H607.093ZM620.277 21.672C627.637 21.672 632.501 26.024 632.501 34.6C632.501 43.176 627.637 47.528 620.277 47.528H618.037V21.672H620.277ZM660.537 12.2H649.593V57H660.537V12.2ZM695.732 57H706.612V12.2H695.86V39.976L679.476 12.2H668.34V57H679.092V29.544L695.732 57ZM755.878 31.848H737.958V41H745.701V44.968C744.998 45.672 741.798 47.72 736.166 47.72C729.062 47.72 723.558 42.6 723.558 34.28C723.558 27.048 728.166 21.48 736.166 21.48C742.182 21.48 746.022 25.064 746.982 26.344L753.894 19.176C751.59 16.296 746.214 11.368 735.654 11.368C721.702 11.368 712.23 21.672 712.23 34.472C712.23 48.872 722.726 57.832 735.398 57.832C745.701 57.832 751.142 54.44 755.878 50.792V31.848ZM822.79 57H835.206L846.854 12.2H835.142L828.358 43.752L820.486 12.2H810.63L802.758 43.752L795.974 12.2H784.262L795.91 57H808.326L815.558 28.84L822.79 57ZM875.727 57V47.208H862.287V39.208H873.295V29.48H862.287V21.992H875.215V12.2H851.343V57H875.727ZM914.342 43.624C914.342 39.016 912.486 35.368 908.07 33.512C911.142 31.784 912.934 28.072 912.934 24.232C912.934 16.552 907.494 12.2 898.406 12.2H882.406V57H898.918C907.494 57 914.342 52.712 914.342 43.624ZM898.662 38.44C901.542 38.44 903.078 40.296 903.078 42.984C903.078 45.544 901.478 47.592 898.598 47.592H893.286V38.44H898.662ZM897.83 21.544C900.518 21.544 901.798 23.144 901.798 25.512C901.798 27.944 900.454 29.672 897.958 29.672H893.286V21.544H897.83ZM932.531 12.2V57H945.715C960.115 57 969.331 48.616 969.331 34.6C969.331 20.584 960.115 12.2 945.715 12.2H932.531ZM945.715 21.672C953.075 21.672 957.939 26.024 957.939 34.6C957.939 43.176 953.075 47.528 945.715 47.528H943.475V21.672H945.715ZM999.415 57V47.208H985.975V39.208H996.983V29.48H985.975V21.992H998.903V12.2H975.031V57H999.415ZM1019.21 11.368C1010.32 11.368 1004.49 16.616 1004.49 24.68C1004.49 39.016 1023.05 38.504 1023.05 44.456C1023.05 46.44 1021.71 47.592 1019.09 47.592C1016.01 47.592 1013.58 45.224 1012.37 42.6L1003.21 47.144C1004.37 50.536 1008.4 57.832 1018.45 57.832C1028.24 57.832 1034.12 51.88 1034.12 43.624C1034.12 29.928 1015.44 30.568 1015.44 24.488C1015.44 22.76 1016.85 21.48 1018.96 21.48C1022.35 21.48 1023.69 23.912 1024.59 25.896L1033.68 21.736C1032.53 18.344 1028.81 11.368 1019.21 11.368ZM1050.91 12.2H1039.97V57H1050.91V12.2ZM1100.32 31.848H1082.4V41H1090.14V44.968C1089.44 45.672 1086.24 47.72 1080.6 47.72C1073.5 47.72 1068 42.6 1068 34.28C1068 27.048 1072.6 21.48 1080.6 21.48C1086.62 21.48 1090.46 25.064 1091.42 26.344L1098.33 19.176C1096.03 16.296 1090.65 11.368 1080.09 11.368C1066.14 11.368 1056.67 21.672 1056.67 34.472C1056.67 48.872 1067.16 57.832 1079.84 57.832C1090.14 57.832 1095.58 54.44 1100.32 50.792V31.848ZM1134.29 57H1145.17V12.2H1134.42V39.976L1118.04 12.2H1106.9V57H1117.65V29.544L1134.29 57Z" fill="#383838"/>
</svg>
